<?xml version="1.0" standalone="no"?>
<!DOCTYPE svg PUBLIC "-//W3C//DTD SVG 20010904//EN"
 "http://www.w3.org/TR/2001/REC-SVG-20010904/DTD/svg10.dtd">
<svg version="1.0" xmlns="http://www.w3.org/2000/svg"
 width="500.000000pt" height="500.000000pt" viewBox="0 0 500.000000 500.000000"
 preserveAspectRatio="xMidYMid meet">

<g transform="translate(0.000000,500.000000) scale(0.100000,-0.100000)"
fill="#000000" stroke="none">
<path d="M1660 3430 l0 -410 405 0 405 0 0 410 0 410 -405 0 -405 0 0 -410z
m485 135 c60 -24 69 -95 18 -135 -14 -11 -20 -20 -14 -20 26 0 61 -49 61 -85
0 -81 -42 -105 -185 -105 l-95 0 0 180 0 180 90 0 c57 0 104 -5 125 -15z"/>
<path d="M1970 3485 l0 -55 75 0 c62 0 79 4 95 20 11 11 20 27 20 35 0 8 -9
24 -20 35 -16 16 -33 20 -95 20 l-75 0 0 -55z"/>
<path d="M1970 3325 l0 -65 69 0 c85 0 119 12 127 44 15 61 -21 86 -126 86
l-70 0 0 -65z"/>
<path d="M2510 3200 l0 -410 408 2 407 3 3 408 2 407 -410 0 -410 0 0 -410z
m370 -10 l0 -160 80 0 c73 0 80 -2 80 -20 0 -19 -7 -20 -100 -20 l-100 0 0
180 c0 173 1 180 20 180 19 0 20 -7 20 -160z"/>
<path d="M1660 2580 l0 -410 93 0 c80 0 95 3 110 20 14 17 29 20 102 20 l85 0
0 49 0 49 -44 6 c-49 8 -166 62 -166 77 0 14 15 11 61 -15 24 -14 74 -30 111
-37 59 -11 77 -10 129 5 34 9 81 31 106 47 153 106 178 330 51 473 -50 57 -42
74 11 22 192 -188 77 -532 -191 -571 l-48 -7 0 -49 0 -49 95 0 c84 0 95 -2
105 -20 10 -18 21 -20 105 -20 l95 0 0 410 0 410 -405 0 -405 0 0 -410z m529
303 c125 -64 174 -219 110 -350 -76 -157 -284 -194 -421 -75 -73 64 -104 203
-66 293 31 71 102 132 188 160 44 15 131 2 189 -28z"/>
<path d="M1996 2881 c-3 -5 1 -14 8 -20 11 -10 23 -8 53 8 l38 20 -47 1 c-26
0 -49 -4 -52 -9z"/>
<path d="M2088 2858 c-21 -12 -38 -24 -38 -27 0 -4 16 -19 36 -35 41 -33 52
-30 91 21 l25 32 -31 15 c-38 20 -38 20 -83 -6z"/>
<path d="M1923 2850 c-44 -27 -47 -36 -15 -59 l29 -20 32 33 c32 33 32 38 -5
59 -6 3 -24 -2 -41 -13z"/>
<path d="M2187 2788 l-35 -42 36 -33 c20 -18 42 -32 49 -33 15 0 36 74 28 99
-3 10 -14 26 -24 35 -18 16 -20 15 -54 -26z"/>
<path d="M1987 2782 l-27 -28 27 -25 c73 -65 67 -64 98 -23 l29 37 -40 33
c-21 19 -44 34 -50 34 -5 0 -22 -13 -37 -28z"/>
<path d="M1843 2754 c-13 -26 -15 -39 -7 -52 19 -29 40 -25 62 12 l20 34 -22
21 c-30 28 -34 27 -53 -15z"/>
<path d="M1922 2703 c-10 -16 -22 -33 -25 -39 -4 -7 13 -27 39 -47 l46 -36 31
36 31 35 -25 19 c-13 11 -36 28 -51 39 l-26 20 -20 -27z"/>
<path d="M2104 2689 l-29 -30 50 -44 c28 -24 53 -44 57 -45 3 0 17 17 29 37
l23 36 -45 39 c-24 21 -47 38 -50 38 -3 0 -18 -14 -35 -31z"/>
<path d="M2273 2685 c-10 -31 -9 -37 8 -45 17 -10 19 -7 19 35 0 54 -13 58
-27 10z"/>
<path d="M1820 2643 c0 -67 11 -82 26 -36 12 35 12 40 -6 58 -20 19 -20 19
-20 -22z"/>
<path d="M1871 2608 c-21 -56 -21 -83 0 -108 l21 -25 34 38 c19 20 34 41 34
45 0 5 -18 23 -40 41 l-40 32 -9 -23z"/>
<path d="M2027 2597 l-26 -34 50 -38 50 -38 29 28 c17 16 30 32 30 36 0 8 -90
79 -100 79 -4 0 -19 -15 -33 -33z"/>
<path d="M2227 2590 l-26 -40 29 -20 29 -21 16 30 c20 39 19 54 -3 74 -17 16
-20 15 -45 -23z"/>
<path d="M1951 2503 c-17 -21 -31 -40 -31 -43 0 -3 13 -14 30 -23 28 -17 31
-17 69 2 22 12 42 25 45 30 5 8 -63 71 -77 71 -3 0 -19 -17 -36 -37z"/>
<path d="M2153 2501 c-30 -28 -30 -30 -14 -45 23 -21 37 -20 73 5 l29 21 -22
24 c-12 13 -25 24 -28 24 -3 0 -20 -14 -38 -29z"/>
<path d="M2055 2430 l-30 -20 37 0 c52 0 71 9 57 26 -15 19 -28 18 -64 -6z"/>
<path d="M2510 2350 l0 -410 405 0 405 0 0 410 0 410 -405 0 -405 0 0 -410z
m495 206 c45 -19 67 -55 67 -111 0 -87 -51 -125 -167 -125 l-65 0 0 -55 c0
-48 -2 -55 -20 -55 -19 0 -20 7 -20 180 l0 180 85 0 c51 0 99 -6 120 -14z"/>
<path d="M2840 2445 l0 -85 69 0 c59 0 74 4 97 24 21 18 28 32 28 61 0 29 -7
43 -28 61 -23 20 -38 24 -97 24 l-69 0 0 -85z"/>
<path d="M1973 2173 c54 -2 139 -2 190 0 51 1 7 3 -98 3 -104 0 -146 -2 -92
-3z"/>
<path d="M1450 1550 l0 -90 56 0 c30 0 64 5 75 10 23 13 26 68 4 76 -12 5 -12
9 0 28 13 19 13 25 -1 44 -13 18 -25 22 -75 22 l-59 0 0 -90z m105 40 c0 -10
-12 -16 -32 -18 -28 -3 -33 0 -33 18 0 18 5 21 33 18 20 -2 32 -8 32 -18z m5
-65 c17 -21 3 -35 -36 -35 -30 0 -34 3 -34 25 0 21 5 25 29 25 16 0 34 -7 41
-15z"/>
<path d="M1700 1550 l0 -90 55 0 c42 0 55 3 55 15 0 11 -11 15 -40 15 l-40 0
0 75 c0 60 -3 75 -15 75 -12 0 -15 -17 -15 -90z"/>
<path d="M2020 1550 c0 -83 1 -90 20 -90 15 0 20 7 20 25 0 22 4 25 35 25 43
0 75 29 75 69 0 41 -32 61 -97 61 l-53 0 0 -90z m111 44 c19 -23 -1 -48 -40
-52 -30 -3 -31 -2 -31 32 0 33 2 36 29 36 16 0 34 -7 42 -16z"/>
<path d="M2260 1550 c0 -73 3 -90 15 -90 9 0 15 9 15 25 0 21 5 25 28 25 21 0
32 -7 40 -25 7 -15 20 -25 32 -25 l21 0 -19 28 c-20 27 -20 28 -1 51 44 54 8
101 -76 101 l-55 0 0 -90z m110 41 c13 -26 -11 -51 -51 -51 -27 0 -29 3 -29
35 0 33 2 35 35 35 24 0 37 -6 45 -19z"/>
<path d="M2523 1616 c-22 -19 -28 -32 -28 -66 0 -34 6 -47 28 -66 52 -44 134
-25 156 37 31 89 -82 158 -156 95z m105 -22 c45 -31 16 -104 -42 -104 -48 0
-73 64 -39 102 20 22 51 23 81 2z"/>
<path d="M2770 1625 c0 -10 10 -15 30 -15 30 0 30 -1 30 -55 0 -60 -16 -79
-46 -54 -13 10 -17 10 -25 -2 -20 -32 65 -55 91 -24 7 9 15 49 18 90 l5 75
-52 0 c-39 0 -51 -4 -51 -15z"/>
<path d="M2970 1550 l0 -90 65 0 c51 0 65 3 65 15 0 11 -12 15 -50 15 -47 0
-50 2 -50 25 0 23 4 25 45 25 33 0 45 4 45 15 0 11 -12 15 -45 15 -38 0 -45 3
-45 20 0 17 7 20 50 20 38 0 50 4 50 15 0 12 -14 15 -65 15 l-65 0 0 -90z"/>
<path d="M3213 1616 c-61 -52 -21 -156 61 -156 37 0 72 22 62 39 -5 8 -13 8
-26 1 -28 -15 -55 -12 -73 8 -48 53 11 125 73 92 26 -14 39 9 15 27 -29 21
-80 16 -112 -11z"/>
<path d="M3420 1625 c0 -9 9 -15 25 -15 24 0 25 -2 25 -75 0 -68 2 -75 20 -75
18 0 20 7 20 75 0 73 1 75 25 75 16 0 25 6 25 15 0 12 -14 15 -70 15 -56 0
-70 -3 -70 -15z"/>
</g>
</svg>
